# Blender 5.1.2
# www.blender.org
mtllib Camera.mtl
o Camera
v 0.198941 -0.198942 -0.354329
v 0.198941 0.198942 -0.354329
v 0.198941 -0.198942 -0.282502
v 0.198941 0.198942 -0.282502
v -0.198942 -0.198942 -0.354329
v -0.198942 0.198942 -0.354329
v -0.198942 -0.198942 -0.282502
v -0.198942 0.198942 -0.282502
v 0.110095 0.110095 -0.231206
v 0.110095 -0.110095 -0.231206
v -0.110095 -0.110095 -0.231206
v -0.110095 0.110095 -0.231206
v 0.110095 0.110095 -0.156444
v 0.110095 -0.110095 -0.156444
v -0.110095 -0.110095 -0.156444
v -0.110095 0.110095 -0.156444
v 0.494121 0.288913 -0.099672
v 0.494121 -0.288913 -0.099672
v -0.494121 -0.288913 -0.099672
v -0.494121 0.288913 -0.099672
v 0.467557 0.262349 -0.008146
v 0.467557 -0.262349 -0.008146
v -0.467557 -0.262349 -0.008146
v -0.467557 0.262349 -0.008146
v 0.494121 0.288913 -0.008146
v 0.494121 -0.288913 -0.008146
v -0.494121 -0.288913 -0.008146
v -0.494121 0.288913 -0.008146
v 0.467557 0.262349 -0.039571
v 0.467557 -0.262349 -0.039571
v -0.467557 -0.262349 -0.039571
v -0.467557 0.262349 -0.039571
vn 0.5773 -0.5773 -0.5774
vn 0.5773 0.5774 -0.5774
vn 0.6261 -0.6261 0.4649
vn 0.6261 0.6261 0.4649
vn -0.5773 -0.5774 -0.5774
vn -0.5773 0.5773 -0.5774
vn -0.6261 -0.6261 0.4649
vn -0.6261 0.6261 0.4649
vn 0.4922 0.4922 0.7179
vn 0.4922 -0.4922 0.7179
vn -0.4922 -0.4922 0.7179
vn -0.4922 0.4922 0.7179
vn 0.3415 0.4368 -0.8322
vn 0.3415 -0.4368 -0.8322
vn -0.3415 -0.4368 -0.8322
vn -0.3415 0.4368 -0.8322
vn 0.6005 0.5905 -0.5392
vn 0.6005 -0.5905 -0.5392
vn -0.6005 -0.5905 -0.5392
vn -0.6005 0.5905 -0.5392
vn -0.3015 -0.3015 0.9045
vn -0.3015 0.3015 0.9045
vn 0.3015 0.3015 0.9045
vn 0.3015 -0.3015 0.9045
vn 0.5773 0.5773 0.5774
vn 0.5773 -0.5773 0.5774
vn -0.5773 -0.5773 0.5774
vn -0.5773 0.5773 0.5774
vn -0.5774 -0.5774 0.5773
vn -0.5774 0.5773 0.5773
vn 0.5774 0.5774 0.5773
vn 0.5774 -0.5773 0.5773
vt 0.133219 0.784036
vt 0.171624 0.996782
vt 0.133219 0.996782
vt 0.212746 0.528407
vt 0.047506 0.575912
vt 0.000000 0.528407
vt 0.171624 0.784036
vt 0.210030 0.996782
vt 0.212746 0.741152
vt 0.425491 0.528407
vt 0.425491 0.741152
vt 0.094813 0.996782
vt 0.056408 0.784036
vt 0.094813 0.784036
vt 0.094813 0.784036
vt 0.133219 0.784036
vt 0.336136 0.863256
vt 0.296161 0.745522
vt 0.336136 0.745522
vt 0.212746 0.741152
vt 0.165240 0.575912
vt 0.047506 0.693647
vt -0.000000 0.741152
vt 0.165240 0.693647
vt 0.095612 0.323071
vt 0.000000 0.000000
vt 0.095612 0.205336
vt 0.296161 0.510053
vt 0.336136 0.627787
vt 0.296161 0.627787
vt 0.296161 0.627787
vt 0.336136 0.745522
vt 0.296161 0.745522
vt 0.000000 0.741152
vt 0.039975 0.858887
vt 0.000000 0.858887
vt 0.167486 0.159409
vt 0.216424 0.687816
vt 0.167486 0.687816
vt 0.308959 0.000000
vt 0.213347 0.205336
vt 0.213347 0.323071
vt -0.000000 0.528407
vt 0.308959 0.528407
vt 0.245753 1.010053
vt 0.228950 0.510053
vt 0.245753 0.510053
vt 0.216424 0.159409
vt 0.265362 0.687816
vt 0.131074 0.510053
vt 0.180012 0.819012
vt 0.131074 0.819012
vt 0.228950 0.819012
vt 0.180012 0.510053
vt 0.228950 0.510053
vt 0.460896 0.318453
vt 0.285181 0.326920
vt 0.293648 0.318453
vt 0.460896 0.020386
vt 0.469363 0.326920
vt 0.285181 0.011919
vt 0.293648 0.020386
vt 0.469363 0.011919
vt 0.617919 0.500000
vt 0.898472 0.000000
vt 0.898472 0.500000
vt 0.262556 0.510053
vt 0.279359 0.790606
vt 0.262556 0.790606
vt 0.296161 0.790606
vt 0.279359 0.510053
vt 0.262556 1.010053
vt 0.262556 0.510053
vt 0.210030 0.784036
vt 0.212746 0.528407
vt 0.056408 0.996782
vt 0.094813 0.996782
vt 0.296161 0.863256
vt 0.336136 0.510053
vt 0.336136 0.627787
vt 0.039975 0.741152
vt 0.216424 0.159409
vt 0.228950 1.010053
vt 0.265363 0.159409
vt 0.617919 -0.000000
vt 0.279359 0.510053
vt 0.279359 0.790606
s 1
usemtl Camera
f 2/1/2 3/2/3 1/3/1
f 7/4/7 12/5/12 8/6/8
f 8/7/8 5/8/5 7/2/7
f 6/9/6 1/10/1 5/11/5
f 7/12/7 1/13/1 3/14/3
f 4/3/4 6/15/6 8/16/8
f 11/17/11 16/18/16 12/19/12
f 3/20/3 11/21/11 7/4/7
f 8/6/8 9/22/9 4/23/4
f 4/23/4 10/24/10 3/20/3
f 16/25/16 17/26/17 13/27/13
f 10/28/10 15/29/15 11/30/11
f 12/31/12 13/32/13 9/33/9
f 9/34/9 14/35/14 10/36/10
f 18/37/18 27/38/27 19/39/19
f 13/27/13 18/40/18 14/41/14
f 15/42/15 20/43/20 16/25/16
f 14/41/14 19/44/19 15/42/15
f 24/45/24 29/46/29 21/47/21
f 20/48/20 25/49/25 17/38/17
f 17/50/17 26/51/26 18/52/18
f 19/53/19 28/54/28 20/55/20
f 22/56/22 25/57/25 21/58/21
f 23/59/23 26/60/26 22/56/22
f 21/58/21 28/61/28 24/62/24
f 24/62/24 27/63/27 23/59/23
f 29/64/29 31/65/31 30/66/30
f 21/67/21 30/68/30 22/69/22
f 23/70/23 32/71/32 24/28/24
f 22/72/22 31/47/31 23/73/23
f 2/1/2 4/7/4 3/2/3
f 7/4/7 11/21/11 12/5/12
f 8/7/8 6/74/6 5/8/5
f 6/9/6 2/75/2 1/10/1
f 7/12/7 5/76/5 1/13/1
f 4/3/4 2/77/2 6/15/6
f 11/17/11 15/78/15 16/18/16
f 3/20/3 10/24/10 11/21/11
f 8/6/8 12/5/12 9/22/9
f 4/23/4 9/22/9 10/24/10
f 16/25/16 20/43/20 17/26/17
f 10/28/10 14/79/14 15/29/15
f 12/31/12 16/80/16 13/32/13
f 9/34/9 13/81/13 14/35/14
f 18/37/18 26/82/26 27/38/27
f 13/27/13 17/26/17 18/40/18
f 15/42/15 19/44/19 20/43/20
f 14/41/14 18/40/18 19/44/19
f 24/45/24 32/83/32 29/46/29
f 20/48/20 28/84/28 25/49/25
f 17/50/17 25/54/25 26/51/26
f 19/53/19 27/51/27 28/54/28
f 22/56/22 26/60/26 25/57/25
f 23/59/23 27/63/27 26/60/26
f 21/58/21 25/57/25 28/61/28
f 24/62/24 28/61/28 27/63/27
f 29/64/29 32/85/32 31/65/31
f 21/67/21 29/86/29 30/68/30
f 23/70/23 31/87/31 32/71/32
f 22/72/22 30/45/30 31/47/31
